<?xml version="1.0" encoding="utf-8"?>
<!-- Generator: Adobe Illustrator 26.3.1, SVG Export Plug-In . SVG Version: 6.00 Build 0)  -->
<svg version="1.1" id="Calque_2_00000090978434323658157950000018302964171383118473_"
	 xmlns="http://www.w3.org/2000/svg" xmlns:xlink="http://www.w3.org/1999/xlink" x="0px" y="0px" viewBox="0 0 156.6 310"
	 style="enable-background:new 0 0 156.6 310;" xml:space="preserve">
<style type="text/css">
	.st0{fill:#0B2265;}
</style>
<g id="Layer_1">
	<path class="st0" d="M5,165.1h34V305c0,2.8,2.2,5,5,5h57.6c2.8,0,5-2.2,5-5V165.8h39.1c2.5,0,4.7-1.9,5-4.4l5.9-51.5
		c0.2-1.4-0.3-2.8-1.2-3.9c-0.9-1.1-2.3-1.7-3.7-1.7h-45V72c0-9.7,5.2-14.7,15.6-14.7h29.4c2.8,0,5-2.2,5-5V5c0-2.8-2.2-5-5-5h-40.5
		c-0.3,0-0.9,0-1.9,0c-7,0-31.5,1.4-50.8,19.1C37,38.8,40,62.4,40.7,66.5v37.8H5c-2.8,0-5,2.2-5,5v50.8C0,162.9,2.2,165.1,5,165.1
		L5,165.1z"/>
</g>
</svg>
