<?xml version="1.0" encoding="utf-8"?>
<!-- Generator: Adobe Illustrator 26.3.1, SVG Export Plug-In . SVG Version: 6.00 Build 0)  -->
<svg version="1.1" id="Calque_2_00000020366349800390900750000006890229951012234674_"
	 xmlns="http://www.w3.org/2000/svg" xmlns:xlink="http://www.w3.org/1999/xlink" x="0px" y="0px" viewBox="0 0 20 20"
	 style="enable-background:new 0 0 20 20;" xml:space="preserve">
<style type="text/css">
	.st0{fill:none;}
	.st1{fill:#0B2265;}
</style>
<g id="Calque_1-2">
	<g>
		<path class="st0" d="M-2-2h24v24H-2V-2z"/>
		<path class="st1" d="M10,7c-1.7,0-3,1.3-3,3s1.3,3,3,3s3-1.3,3-3S11.7,7,10,7z M10,5c2.8,0,5,2.2,5,5s-2.2,5-5,5s-5-2.2-5-5
			S7.2,5,10,5z M16.5,4.8c0,0.7-0.6,1.2-1.2,1.2S14,5.4,14,4.8s0.6-1.2,1.2-1.2S16.5,4.1,16.5,4.8z M10,2C7.5,2,7.1,2,6,2.1
			c-0.8,0-1.3,0.1-1.8,0.3S3.4,2.8,3.1,3.1S2.5,3.8,2.4,4.2C2.2,4.7,2.1,5.2,2.1,6C2,7.1,2,7.5,2,10s0,2.9,0.1,4
			c0,0.8,0.1,1.3,0.3,1.8c0.2,0.4,0.4,0.8,0.7,1.1s0.7,0.5,1.1,0.7c0.5,0.2,1,0.3,1.8,0.3c1.1,0,1.5,0.1,4,0.1s2.9,0,4-0.1
			c0.8,0,1.3-0.1,1.8-0.3c0.4-0.2,0.8-0.4,1.1-0.7c0.3-0.3,0.5-0.6,0.7-1.1s0.3-1,0.3-1.8c0-1.1,0.1-1.5,0.1-4s0-2.9-0.1-4
			c0-0.8-0.1-1.3-0.3-1.8c-0.1-0.4-0.4-0.8-0.7-1.1c-0.3-0.3-0.7-0.6-1.1-0.7c-0.5-0.2-1-0.3-1.8-0.3C12.9,2,12.5,2,10,2z M10,0
			c2.7,0,3.1,0,4.1,0.1c1.1,0,1.8,0.2,2.4,0.5c0.7,0.2,1.2,0.6,1.8,1.2c0.5,0.5,0.9,1.1,1.1,1.8C19.6,4.2,19.8,5,19.9,6
			S20,7.3,20,10s0,3.1-0.1,4.1c0,1.1-0.2,1.8-0.5,2.4c-0.2,0.7-0.6,1.3-1.1,1.8s-1.1,0.9-1.8,1.1c-0.6,0.2-1.4,0.4-2.4,0.5
			S12.7,20,10,20s-3.1,0-4.1-0.1c-1.1,0-1.8-0.2-2.4-0.5c-0.7-0.2-1.3-0.6-1.8-1.1s-0.9-1.1-1.2-1.8c-0.2-0.6-0.4-1.4-0.5-2.4
			s0-1.4,0-4.1s0-3.1,0.1-4.1c0-1.1,0.2-1.8,0.5-2.4c0.2-0.7,0.6-1.3,1.2-1.8c0.5-0.5,1.1-0.9,1.8-1.2C4.2,0.3,5,0.1,6,0S7.3,0,10,0
			z"/>
	</g>
</g>
</svg>
