<?xml version="1.0" encoding="UTF-8"?><svg id="Calque_2" xmlns="http://www.w3.org/2000/svg" xmlns:xlink="http://www.w3.org/1999/xlink" viewBox="0 0 282.65 282.65"><defs><style>.cls-1{fill:none;}.cls-2{fill:url(#linear-gradient);}.cls-3{clip-path:url(#clippath);}.cls-4{fill:#fff;}.cls-5{fill:#ef5389;}.cls-6{fill:#15276a;}.cls-7{clip-path:url(#clippath-1);}.cls-8{clip-path:url(#clippath-2);}.cls-9{fill:url(#linear-gradient-2);}</style><clipPath id="clippath"><rect class="cls-1" width="282.65" height="282.65"/></clipPath><clipPath id="clippath-1"><path class="cls-1" d="M70.57,204.52v28.24h27.92c21.18,0,31.77-14.12,42.36-28.24H70.57Z"/></clipPath><linearGradient id="linear-gradient" x1="-735.64" y1="566.41" x2="-734.64" y2="566.41" gradientTransform="translate(40432.25 31283.76) scale(54.85 -54.85)" gradientUnits="userSpaceOnUse"><stop offset="0" stop-color="#006fba"/><stop offset="1" stop-color="#00306b"/></linearGradient><clipPath id="clippath-2"><path class="cls-1" d="M183.21,176.28c-21.18,0-31.77,14.12-42.36,28.24h70.28v-28.24h-27.92Z"/></clipPath><linearGradient id="linear-gradient-2" x1="-735.64" y1="566.62" x2="-734.64" y2="566.62" gradientTransform="translate(42573.41 32873.3) scale(57.68 -57.68)" gradientUnits="userSpaceOnUse"><stop offset="0" stop-color="#fbad18"/><stop offset="1" stop-color="#fd0"/></linearGradient></defs><g id="Layer_1"><g class="cls-3"><path class="cls-5" d="M0,157.19V26.99C0,12.11,12.11,0,26.99,0H255.66c14.88,0,26.99,12.11,26.99,26.99V157.19H0Z"/><path class="cls-4" d="M0,157.19v98.47c0,14.88,12.11,26.99,26.99,26.99H255.66c14.88,0,26.99-12.11,26.99-26.99v-98.47H0Z"/><path class="cls-4" d="M205.52,109.74h7.32v25.63h-7.32v-25.63Zm3.65-11.39c-2.36,0-4.27,1.93-4.27,4.31,0,2.38,1.9,4.32,4.26,4.32,2.36,0,4.27-1.93,4.27-4.31,0-2.39-1.91-4.32-4.26-4.32m32.5,11.44v31.46h-7.32v-7.07c-1.67,.81-3.53,1.28-5.51,1.28-7.04,0-12.77-5.8-12.77-12.92s5.73-12.92,12.77-12.92c1.97,0,3.84,.47,5.51,1.28v-1.1h7.32Zm-7.38,12.74c0-3.04-2.45-5.52-5.45-5.52s-5.45,2.48-5.45,5.52,2.45,5.52,5.45,5.52,5.45-2.48,5.45-5.52m-98.74-5.52c1.84,0,3.54,.93,4.55,2.49l6.11-4.08c-2.37-3.65-6.36-5.82-10.67-5.82-7.04,0-12.77,5.8-12.77,12.92s5.73,12.92,12.77,12.92c4.27,0,8.23-2.14,10.61-5.73l-6.08-4.12c-1.02,1.54-2.71,2.45-4.53,2.45-3,0-5.45-2.48-5.45-5.52s2.45-5.52,5.45-5.52m-69.49,5.52c0,7.13-5.73,12.92-12.77,12.92-1.99,0-3.88-.48-5.56-1.31v7.1h-7.32v-31.46h7.32v1.13c1.68-.83,3.57-1.31,5.56-1.31,7.04,0,12.77,5.8,12.77,12.92m-7.32,0c0-3.04-2.45-5.52-5.45-5.52s-5.45,2.48-5.45,5.52,2.45,5.52,5.45,5.52,5.45-2.48,5.45-5.52m35.06,12.84h-7.32v-1.15c-1.64,.78-3.47,1.23-5.41,1.23-7.04,0-12.77-5.8-12.77-12.92s5.73-12.92,12.77-12.92c1.94,0,3.77,.45,5.41,1.23v-1.05h7.32v25.58Zm-7.32-13.48c-.31-2.74-2.62-4.88-5.41-4.88-3.01,0-5.45,2.48-5.45,5.52s2.45,5.52,5.45,5.52c2.79,0,5.1-2.14,5.41-4.88v-1.28Zm102.54-12.07c-1.57,0-3.16,.32-4.66,.93v-.96h-7.32v25.58h7.32v-13.45c0-4.55,4.18-4.68,4.66-4.68,1.22,0,2.33,.4,3.12,1.13,.9,.84,1.35,2.08,1.35,3.71v13.13h7.32v-13.13c0-8.04-5.93-12.25-11.79-12.25m-66.26,.02h-7.43l-5.28,13.52-5.68-13.52h-7.92l10.08,22.56-3.48,8.92h7.43l12.29-31.48Zm51.09,12.69c0,7.13-5.73,12.92-12.77,12.92s-12.77-5.8-12.77-12.92,5.73-12.92,12.77-12.92,12.77,5.8,12.77,12.92m-7.32,0c0-3.04-2.45-5.52-5.45-5.52s-5.45,2.48-5.45,5.52,2.45,5.52,5.45,5.52,5.45-2.48,5.45-5.52"/><path class="cls-4" d="M179.93,27.19c-6.86,0-13.2,2.19-18.38,5.91l-28.22,20.54c-2.46-15-15.47-26.44-31.16-26.44-17.44,0-31.59,14.14-31.59,31.59s14.14,31.59,31.59,31.59c6.9,0,13.27-2.22,18.47-5.97l28.14-20.47c2.46,14.99,15.47,26.44,31.16,26.44,17.44,0,31.59-14.14,31.59-31.59s-14.14-31.59-31.59-31.59m-77.77,45.76c-7.83,0-14.17-6.34-14.17-14.17s6.34-14.17,14.17-14.17,14.17,6.34,14.17,14.17-6.34,14.17-14.17,14.17m77.77,0c-7.83,0-14.17-6.34-14.17-14.17s6.34-14.17,14.17-14.17,14.17,6.34,14.17,14.17-6.34,14.17-14.17,14.17"/><path class="cls-6" d="M70.57,263.22v-20.3h6.27c4.55,0,7.48,1.71,7.48,5.25,0,2-.93,3.39-2.23,4.21,1.88,.87,2.99,2.55,2.99,4.84,0,4.09-2.99,6.01-7.63,6.01h-6.87Zm4.03-11.86h2.99c1.83,0,2.61-.9,2.61-2.55,0-1.77-1.42-2.35-3.34-2.35h-2.26v4.9Zm0,8.33h2.49c2.44,0,3.86-.61,3.86-2.52s-1.22-2.67-3.51-2.67h-2.84v5.19Zm18.29,3.89c-3.97,0-5.97-1.94-5.97-4.55,0-2.87,2.35-4.55,5.83-4.58,.81,0,1.86,.11,2.58,.23v-.69c0-1.77-1.02-2.61-2.96-2.61-1.27,0-2.64,.2-3.83,.7l-.72-3.13c1.25-.52,3.25-.87,5.02-.87,4.26,0,6.38,2.26,6.38,6.18v8.07c-1.19,.61-3.42,1.27-6.32,1.27m2.44-3.28v-3.1c-.67-.15-1.36-.23-2.06-.23-1.33,0-2.38,.52-2.38,1.88,0,1.22,.87,1.86,2.41,1.86,.87,0,1.6-.17,2.03-.41m6.7,2.93v-13.89c1.83-.78,4.32-1.28,6.55-1.28,4.24,0,6.67,2.09,6.67,5.95v9.23h-4v-8.93c0-2-.93-2.93-2.7-2.93-.93,0-1.8,.17-2.55,.52v11.34h-3.97Zm27.21-14.3l-.75,3.16c-1.1-.46-2.29-.73-3.28-.73-2.35,0-3.63,1.65-3.63,4.38,0,2.99,1.34,4.52,3.83,4.52,.96,0,2.12-.26,3.22-.75l.64,3.22c-.99,.49-2.49,.84-4.18,.84-4.82,0-7.6-2.99-7.6-7.72s2.76-7.8,7.37-7.8c1.65,0,3.31,.38,4.38,.87m8.65,14.65c-4.47,0-7.25-3.1-7.25-7.77s2.78-7.74,7.25-7.74,7.22,3.1,7.22,7.74-2.73,7.77-7.22,7.77m0-3.31c2.06,0,3.13-1.71,3.13-4.47s-1.07-4.44-3.13-4.44-3.16,1.71-3.16,4.44,1.13,4.47,3.16,4.47m9.54,2.96v-13.89c1.83-.78,4.32-1.28,6.55-1.28,4.24,0,6.67,2.09,6.67,5.95v9.23h-4v-8.93c0-2-.93-2.93-2.7-2.93-.93,0-1.8,.17-2.55,.52v11.34h-3.97Zm22.25,.35c-3.45,0-5.22-1.88-5.22-5.71v-6.26h-1.97v-3.19h1.97v-3.22l4-.2v3.42h3.22v3.19h-3.22v6.21c0,1.68,.7,2.46,2,2.46,.61,0,1.16-.09,1.54-.17l.2,3.22c-.7,.17-1.62,.26-2.53,.26m10.1,0c-3.97,0-5.97-1.94-5.97-4.55,0-2.87,2.35-4.55,5.83-4.58,.81,0,1.86,.11,2.58,.23v-.69c0-1.77-1.02-2.61-2.96-2.61-1.28,0-2.64,.2-3.83,.7l-.72-3.13c1.25-.52,3.25-.87,5.02-.87,4.26,0,6.38,2.26,6.38,6.18v8.07c-1.19,.61-3.42,1.27-6.32,1.27m2.44-3.28v-3.1c-.67-.15-1.36-.23-2.06-.23-1.33,0-2.38,.52-2.38,1.88,0,1.22,.87,1.86,2.41,1.86,.87,0,1.6-.17,2.03-.41m17.58-11.37l-.75,3.16c-1.1-.46-2.29-.73-3.28-.73-2.35,0-3.63,1.65-3.63,4.38,0,2.99,1.33,4.52,3.83,4.52,.96,0,2.12-.26,3.22-.75l.64,3.22c-.99,.49-2.49,.84-4.18,.84-4.81,0-7.6-2.99-7.6-7.72s2.76-7.8,7.37-7.8c1.65,0,3.31,.38,4.38,.87m8.8,14.65c-3.45,0-5.22-1.88-5.22-5.71v-6.26h-1.97v-3.19h1.97v-3.22l4-.2v3.42h3.22v3.19h-3.22v6.21c0,1.68,.7,2.46,2,2.46,.61,0,1.16-.09,1.54-.17l.2,3.22c-.7,.17-1.62,.26-2.52,.26"/></g><g class="cls-7"><rect class="cls-2" x="67.86" y="193.17" width="75.72" height="50.94" transform="translate(-69.51 50.49) rotate(-20.38)"/></g><g class="cls-8"><rect class="cls-9" x="138.18" y="165.69" width="75.63" height="49.42" transform="translate(-52.05 67.03) rotate(-18.84)"/></g></g></svg>